# xmcd
#
# Track frame offsets:
# 150
# 13831
# 28245
# 39343
# 57839
# 69047
# 80311
# 89256
# 105672
# 114093
# 121509
# 132318
# 144543
# 155428
# 167777
# 179308
#
# Disc length: 2589 seconds
#
#
# Revision: 0
# Processed by: cddbd v1.5.2PL0 Copyright (c) Steve Scherf et al.
# Submitted via: FreeRIP 2.945 
#
DISCID=c20a1b10
DTITLE=Elvis Presley - How Great Thou Art
DYEAR=2008
DGENRE=Gospel
TTITLE0=How Great Thou Art
TTITLE1=In The Garden
TTITLE2=Somebody Bigger Than You And I
TTITLE3=Farther Along
TTITLE4=Stand By Me
TTITLE5=Without Him
TTITLE6=So High
TTITLE7=Where Could I Go But To The Lord
TTITLE8=By And By
TTITLE9=If The Lord Wasn't Walking By My Side
TTITLE10=Run On
TTITLE11=Where No One Stands Alone
TTITLE12=Crying In The Chapel
TTITLE13=You'll Never Walk Alone
TTITLE14=We Call On Him
TTITLE15=Who Am I?
EXTD=
EXTT0=
EXTT1=
EXTT2=
EXTT3=
EXTT4=
EXTT5=
EXTT6=
EXTT7=
EXTT8=
EXTT9=
EXTT10=
EXTT11=
EXTT12=
EXTT13=
EXTT14=
EXTT15=
PLAYORDER=
